<svg xmlns="http://www.w3.org/2000/svg" width="35" height="35" fill="none" viewBox="0 0 35 35"><path fill="#000" d="M17.5 0C7.836 0 0 7.958 0 17.774 0 26.103 5.647 33.072 13.26 35a2.6 2.6 0 0 1-.134-.864v-3.038h-2.2c-1.197 0-2.262-.523-2.778-1.495-.573-1.08-.673-2.731-2.093-3.741-.421-.337-.1-.72.385-.668.897.257 1.64.882 2.34 1.81.698.928 1.026 1.139 2.328 1.139.632 0 1.577-.037 2.466-.18.479-1.233 1.305-2.37 2.316-2.906-5.828-.608-8.609-3.553-8.609-7.55 0-1.722.722-3.387 1.949-4.79-.403-1.392-.909-4.23.154-5.312 2.623 0 4.208 1.727 4.588 2.193a13 13 0 0 1 4.25-.712c1.51 0 2.951.258 4.261.715.376-.463 1.963-2.196 4.591-2.196 1.067 1.083.556 3.934.149 5.323 1.219 1.4 1.936 3.06 1.936 4.778 0 3.995-2.776 6.938-8.595 7.55 1.601.849 2.77 3.233 2.77 5.03v4.05c0 .154-.034.265-.052.396C30.102 32.106 35 25.53 35 17.774 35 7.958 27.164 0 17.5 0"/></svg>