<svg xmlns="http://www.w3.org/2000/svg" width="48" height="48" viewBox="0 0 256 256"><g fill="#adadad" stroke-miterlimit="10" font-family="none" font-size="none" font-weight="none" style="mix-blend-mode:normal" text-anchor="none"><path d="m64 53.333 64 69.334 64-69.334c-11.573-11.573-30.501-11.018-41.376 1.216L128 80l-22.624-25.45C94.5 42.314 75.573 41.76 64 53.332M72.603 180.779l50.069-52.78-50.07-52.778c-11.375-11.994-30.405-12.245-42.095-.554L80.005 128l-49.498 53.333c11.69 11.69 30.72 11.44 42.096-.554M183.403 180.779l-50.07-52.78 50.07-52.778c11.376-11.994 30.405-12.245 42.096-.554L175.999 128l49.5 53.333c-11.691 11.69-30.72 11.44-42.096-.554M191.952 202.688l-64-69.333-64 69.333c11.573 11.573 30.501 11.019 41.376-1.216l22.624-25.45 22.624 25.45c10.875 12.235 29.803 12.79 41.376 1.216"/></g></svg>