<svg xmlns="http://www.w3.org/2000/svg" width="48" height="48" viewBox="0 0 256 256"><g fill="none" stroke-miterlimit="10" font-family="none" font-size="none" font-weight="none" style="mix-blend-mode:normal" text-anchor="none"><path fill="#adadad" d="M32 53.333C32 41.552 41.552 32 53.333 32h149.334C214.447 32 224 41.552 224 53.333v149.334c0 11.78-9.552 21.333-21.333 21.333H53.333C41.552 224 32 214.448 32 202.667z"/><path fill="#fff" d="M48 48v160h160V48z"/><path fill="#adadad" d="M112.976 149.147H88.683l-4.62 15.178h-14.73l25.035-73.658h12.837l25.168 73.653h-14.73zm-20.55-12.294h16.811l-8.448-27.573zm68.353 28.48q-5.824-.001-10.416-2.074c-3.067-1.382-5.664-3.275-7.808-5.67s-3.771-5.2-4.896-8.421c-1.12-3.221-1.686-6.667-1.686-10.347v-1.973q.002-6.224 1.643-11.408 1.633-5.184 4.667-8.928a21.3 21.3 0 0 1 7.338-5.845c2.88-1.398 6.107-2.102 9.675-2.102q5.401 0 9.515 1.947a19.2 19.2 0 0 1 6.906 5.467c1.862 2.34 3.264 5.168 4.203 8.474s1.413 6.987 1.413 11.035v6.224h-31.818c.213 1.787.656 3.408 1.317 4.853q.993 2.174 2.539 3.718c1.029 1.029 2.24 1.829 3.62 2.405 1.388.576 2.945.859 4.668.859 2.432 0 4.682-.496 6.74-1.494 2.065-.992 3.836-2.538 5.313-4.63l6.56 8.044q-1.202 1.873-3.003 3.642-1.801 1.77-4.25 3.163c-1.632.928-3.467 1.67-5.52 2.224-2.048.56-4.283.837-6.72.837m-1.52-44.922c-1.451 0-2.715.277-3.814.837a8.4 8.4 0 0 0-2.816 2.325q-1.178 1.489-1.914 3.568-.737 2.074-1.056 4.603h18.565v-1.163q-.047-2.175-.581-4.048-.528-1.87-1.616-3.237c-.726-.912-1.648-1.616-2.768-2.123-1.136-.506-2.464-.762-4-.762"/></g></svg>