<svg xmlns="http://www.w3.org/2000/svg" width="48" height="48" viewBox="0 0 256 256"><g fill="none" stroke-miterlimit="10" font-family="none" font-size="none" font-weight="none" style="mix-blend-mode:normal" text-anchor="none"><path fill="#adadad" d="M229.333 187.264V71.125L128 13.051 26.667 71.125v116.139L128 245.334Z"/><path fill="#fff" d="M173.333 69.333c-7.365 0-13.333 5.968-13.333 13.334v60.138l-58.752-65.722-.699-.811c-6.634-7.27-14.218-6.939-17.882-6.939-7.366 0-13.334 5.968-13.334 13.334v90.666c0 7.366 5.968 13.334 13.334 13.334S96 180.699 96 173.333v-60.581l60.15 67.344.586.757c6.57 6.523 15.504 5.814 16.597 5.814 7.366 0 13.334-5.968 13.334-13.334V82.667c0-7.366-5.968-13.334-13.334-13.334"/></g></svg>