<svg xmlns="http://www.w3.org/2000/svg" width="50" height="50" viewBox="0 0 256 256"><path fill="#adadad" stroke-miterlimit="10" d="M45.273 2.324A1 1 0 0 0 44.535 2H5.465a.996.996 0 0 0-.996 1.09l3.52 39.426c.034.414.324.757.722.875l16.012 4.57c.086.027.18.039.273.039a1 1 0 0 0 .273-.04l16.024-4.57c.398-.117.684-.46.723-.874L45.53 3.09a.99.99 0 0 0-.258-.766m-8.425 13.594H18.035l.45 5.09h17.91L35.05 36.05 24.992 39.09l-.097-.031-9.942-3.012-.543-6.129h4.871l.211 2.379 5.559 1.164 5.457-1.164.582-6.438H14.047l-1.324-14.804h24.559Z" font-family="none" font-size="none" font-weight="none" style="mix-blend-mode:normal" text-anchor="none" transform="scale(5.12)"/></svg>