<svg xmlns="http://www.w3.org/2000/svg" width="48" height="48" viewBox="0 0 256 256"><g fill="none" stroke-miterlimit="10" font-family="none" font-size="none" font-weight="none" style="mix-blend-mode:normal" text-anchor="none"><path fill="#adadad" d="M32 53.333C32 41.552 41.552 32 53.333 32h149.334C214.447 32 224 41.552 224 53.333v149.334c0 11.78-9.552 21.333-21.333 21.333H53.333C41.552 224 32 214.448 32 202.667z"/><path fill="#fff" d="M48 48v160h160V48zm64.085 54.261h-10.677v23.648h10.523q4.374 0 6.773-2.864c1.6-1.91 2.395-4.688 2.395-8.336 0-3.786-.816-6.794-2.448-9.034s-3.824-3.376-6.566-3.414m17.862 29.947c-4.406 4.31-10.518 6.459-18.331 6.459h-10.208v26.666H85.333V89.5h26.598c7.498 0 13.482 2.33 17.94 6.98q6.692 6.978 6.694 18.124-.001 11.142-6.618 17.605m47.12-9.008-4.8-.533c-4.267 0-6.934 1.6-8 5.333v37.333h-14.934V108.8H163.2l.533 5.867c2.134-4.8 5.334-6.934 9.6-6.934 1.6 0 3.2 0 4.267.534z"/></g></svg>