<svg xmlns="http://www.w3.org/2000/svg" width="48" height="48" viewBox="0 0 256 256"><g fill="none" stroke-miterlimit="10" font-family="none" font-size="none" font-weight="none" style="mix-blend-mode:normal" text-anchor="none"><path fill="#adadad" d="M32 53.333C32 41.552 41.552 32 53.333 32h149.334C214.447 32 224 41.552 224 53.333v149.334c0 11.78-9.552 21.333-21.333 21.333H53.333C41.552 224 32 214.448 32 202.667Z"/><path fill="#fff" d="M48 48v160h160V48Zm78.352 117.333-4.064-15.52h-20.885l-4.06 15.52H81.148L104.843 89.5h14.01l23.856 75.834Zm38.181 0h-14.79v-56.352h14.79Zm-1.59-65.312c-1.444 1.494-3.391 2.24-5.86 2.24-2.47 0-4.416-.746-5.862-2.24-1.445-1.493-2.16-3.37-2.16-5.626 0-2.294.73-4.166 2.187-5.627s3.408-2.187 5.835-2.187q3.64 0 5.834 2.187c1.462 1.456 2.187 3.333 2.187 5.627q0 3.385-2.16 5.626"/><path fill="#fff" d="M104.741 137.05h14.166l-7.083-27.029Z"/></g></svg>