<svg xmlns="http://www.w3.org/2000/svg" width="50" height="50" viewBox="0 0 256 256"><path fill="#adadad" stroke-miterlimit="10" d="M46.793 22.09 27.91 3.207A4.1 4.1 0 0 0 25 2c-1.055 0-2.11.402-2.91 1.207l-3.735 3.734 4.622 4.621a3.994 3.994 0 0 1 4.851.61 3.99 3.99 0 0 1 .606 4.848l4.543 4.543a3.994 3.994 0 0 1 4.851 6.265 3.994 3.994 0 0 1-6.266-4.852l-4.542-4.542a3.9 3.9 0 0 1-1.02.421v12.286A3.99 3.99 0 0 1 29 35c0 2.211-1.79 4-4 4s-4-1.789-4-4a3.99 3.99 0 0 1 3-3.86V18.856a3.96 3.96 0 0 1-1.828-1.027 3.99 3.99 0 0 1-.606-4.848l-4.625-4.625L3.207 22.09a4.11 4.11 0 0 0 0 5.82L22.09 46.793A4.1 4.1 0 0 0 25 48c1.055 0 2.11-.402 2.91-1.207L46.793 27.91a4.11 4.11 0 0 0 0-5.82" font-family="none" font-size="none" font-weight="none" style="mix-blend-mode:normal" text-anchor="none" transform="scale(5.12)"/></svg>