<svg xmlns="http://www.w3.org/2000/svg" width="50" height="50" viewBox="0 0 256 256"><path fill="#adadad" stroke-miterlimit="10" d="M18.5 2C13.818 2 10 5.818 10 10.5c0 3.3 1.95 6.093 4.709 7.5C11.949 19.407 10 22.2 10 25.5s1.95 6.093 4.709 7.5C11.949 34.407 10 37.2 10 40.5c0 4.682 3.818 8.5 8.5 8.5s8.5-3.818 8.5-8.5V29.656C28.341 32.202 30.932 34 34 34c4.406 0 8-3.594 8-8 0-3.622-2.474-6.571-5.785-7.55C39.554 17.301 42 14.22 42 10.5 42 5.818 38.182 2 33.5 2H26zm0 2H25v13h-6.5a6.485 6.485 0 0 1-6.5-6.5C12 6.898 14.898 4 18.5 4M27 4h6.5c3.602 0 6.5 2.898 6.5 6.5S37.102 17 33.5 17H27zm-8.5 15H25v13h-6.5a6.485 6.485 0 0 1-6.5-6.5c0-3.602 2.898-6.5 6.5-6.5m8.5 0h3.344A7.95 7.95 0 0 0 27 22.344zm7 1c3.326 0 6 2.674 6 6s-2.674 6-6 6-6-2.674-6-6 2.674-6 6-6M18.5 34H25v6.5c0 3.602-2.898 6.5-6.5 6.5a6.485 6.485 0 0 1-6.5-6.5c0-3.602 2.898-6.5 6.5-6.5" font-family="none" font-size="none" font-weight="none" style="mix-blend-mode:normal" text-anchor="none" transform="scale(5.12)"/></svg>