<svg xmlns="http://www.w3.org/2000/svg" width="48" height="48" viewBox="0 0 256 256"><g fill="#adadad" stroke-miterlimit="10" font-family="none" font-size="none" font-weight="none" style="mix-blend-mode:normal" text-anchor="none"><path d="M128.037 242.235c-3.061 0-6.096-.8-8.778-2.347l-27.947-16.55c-4.176-2.335-2.139-3.162-.763-3.637 5.568-1.946 6.694-2.39 12.635-5.765.624-.357 1.44-.23 2.08.15l21.472 12.74c.773.422 1.877.422 2.592.0005314674377530082l83.717-48.326c.774-.442 1.28-1.338 1.28-2.261V79.637c0-.965-.501-1.824-1.296-2.304l-83.68-48.288a2.58 2.58 0 0 0-2.576 0L43.104 77.328a2.66 2.66 0 0 0-1.328 2.283v96.608c0 .922.501 1.802 1.301 2.24L66.005 191.7c12.448 6.224 20.054-1.11 20.054-8.485V87.872c0-1.36 1.066-2.41 2.432-2.41h10.602a2.395 2.395 0 0 1 2.41 2.41v95.392c0 16.597-9.05 26.133-24.788 26.133-4.843 0-8.656 0-19.302-5.237l-21.962-12.656c-5.43-3.147-8.784-9.019-8.784-15.28V79.616c0-6.288 3.354-12.155 8.778-15.259l83.808-48.346C124.555 13.013 131.595 13.013 136.86 16.01l83.7 48.369c5.398 3.12 8.774 8.97 8.774 15.258v96.608c0 6.267-3.376 12.112-8.778 15.259l-83.702 48.341a17.6 17.6 0 0 1-8.821 2.347"/><path d="M153.899 175.664c-36.63 0-44.31-16.816-44.31-30.917a2.41 2.41 0 0 1 2.427-2.41l10.816-.001a2.42 2.42 0 0 1 2.39 2.048c1.631 11.019 6.495 16.576 28.645 16.576 17.642 0 25.146-3.984 25.146-13.344 0-5.387-2.138-9.387-29.546-12.07-22.928-2.26-37.094-7.311-37.094-25.647 0-16.891 14.25-26.95 38.118-26.95 26.805 0 40.09 9.307 41.765 29.296a2.43 2.43 0 0 1-.65 1.867c-.46.48-1.11.773-1.782.773h-10.875a2.4 2.4 0 0 1-2.347-1.888c-2.618-11.59-8.949-15.296-26.154-15.296-19.259 0-21.499 6.704-21.499 11.734 0 6.096 2.64 7.877 28.624 11.317 25.734 3.413 37.952 8.235 37.952 26.32 0 18.23-15.216 28.688-41.744 28.688"/></g></svg>