<svg xmlns="http://www.w3.org/2000/svg" width="30" height="30" viewBox="0 0 256 256"><path fill="#adadad" stroke-miterlimit="10" d="M10.68 4.182c-.611 0-1.178.136-1.68.425-1.569.906-2.166 3.114-1.85 5.862C4.613 11.569 3 13.189 3 15s1.613 3.431 4.15 4.531c-.316 2.748.281 4.956 1.85 5.862.501.289 1.068.425 1.68.425 1.302 0 2.808-.653 4.32-1.775 1.512 1.122 3.02 1.775 4.322 1.775.611 0 1.178-.136 1.68-.425 1.569-.906 2.166-3.114 1.85-5.862C25.388 18.431 27 16.811 27 15s-1.613-3.431-4.15-4.531c.316-2.748-.281-4.956-1.85-5.862-.501-.29-1.068-.425-1.68-.425-1.302 0-2.808.653-4.32 1.775-1.512-1.122-3.018-1.775-4.32-1.775m0 1.75c.781 0 1.815.415 2.937 1.185-.66.623-1.306 1.33-1.928 2.12-1.008.144-1.959.355-2.84.618-.004-.06-.015-.125-.019-.185-.107-1.78.284-3.107 1.045-3.547.225-.13.488-.191.805-.191m8.64 0c.316 0 .58.061.805.191.761.439 1.152 1.767 1.045 3.547-.004.06-.015.124-.02.185a19.6 19.6 0 0 0-2.841-.619 19.6 19.6 0 0 0-1.926-2.119c1.122-.77 2.156-1.185 2.937-1.185M15 8.229c.271.246.54.507.813.792C15.543 9.012 15.274 9 15 9s-.541.012-.81.021c.271-.285.54-.546.81-.792m0 2.521c.829 0 1.614.046 2.36.127.454.618.902 1.27 1.322 1.998.402.697.758 1.41 1.072 2.125a22 22 0 0 1-1.072 2.127 21 21 0 0 1-1.319 1.99c-.771.085-1.563.133-2.363.133-.829 0-1.614-.046-2.36-.127a21 21 0 0 1-1.322-1.996A22 22 0 0 1 10.246 15c.314-.715.67-1.428 1.072-2.125a21 21 0 0 1 1.319-1.992A22 22 0 0 1 15 10.75m4.746.541q.597.143 1.137.314-.123.553-.293 1.12c-.129-.242-.254-.484-.393-.725-.143-.248-.302-.47-.45-.709m-9.494.002c-.149.238-.307.46-.45.707-.138.24-.263.483-.392.725a16 16 0 0 1-.295-1.121q.549-.173 1.137-.311m-2.783.953c.21.89.503 1.812.879 2.752a19.6 19.6 0 0 0-.877 2.746C5.729 16.904 4.75 15.856 4.75 15c0-.879.952-1.88 2.547-2.678.054-.027.116-.05.172-.076m15.06.01c1.742.84 2.721 1.888 2.721 2.744 0 .879-.952 1.88-2.547 2.678-.054.027-.116.05-.172.076-.21-.89-.5-1.813-.877-2.754.375-.937.665-1.857.875-2.744M15 13a2 2 0 1 0-.001 3.999A2 2 0 0 0 15 13m-5.59 4.275c.129.242.256.484.395.725.143.248.3.47.449.709q-.597-.143-1.137-.314.122-.552.293-1.12m11.18.002c.112.379.214.752.295 1.12q-.549.171-1.137.31c.149-.238.307-.46.45-.707.138-.24.263-.482.392-.723M8.85 20.145c.88.263 1.832.474 2.841.619a19.6 19.6 0 0 0 1.926 2.12c-1.122.77-2.156 1.186-2.937 1.186a1.57 1.57 0 0 1-.805-.193c-.761-.439-1.152-1.765-1.045-3.545.004-.061.015-.126.02-.187m12.3 0c.005.061.016.126.02.187.107 1.78-.284 3.105-1.045 3.545-.225.13-.488.193-.805.193-.781 0-1.815-.415-2.937-1.185a19.6 19.6 0 0 0 1.928-2.121 19.6 19.6 0 0 0 2.84-.62m-6.962.834c.27.009.538.021.812.021s.543-.012.813-.021c-.273.285-.542.546-.813.792-.271-.246-.54-.507-.812-.792" font-family="none" font-size="none" font-weight="none" style="mix-blend-mode:normal" text-anchor="none" transform="scale(8.53333)"/></svg>