<svg xmlns="http://www.w3.org/2000/svg" xmlns:xlink="http://www.w3.org/1999/xlink" viewBox="0,0,256,256" width="48px" height="48px" fill-rule="nonzero"><g fill="#adadad" fill-rule="nonzero" stroke="none" stroke-width="1" stroke-linecap="butt" stroke-linejoin="miter" stroke-miterlimit="10" stroke-dasharray="" stroke-dashoffset="0" font-family="none" font-weight="none" font-size="none" text-anchor="none" style="mix-blend-mode: normal"><g transform="scale(5.33333,5.33333)"><path d="M12,10l12,13l12,-13v0c-2.17,-2.17 -5.719,-2.066 -7.758,0.228l-4.242,4.772l-4.242,-4.772c-2.039,-2.294 -5.588,-2.398 -7.758,-0.228z"/><path d="M13.613,33.896l9.388,-9.896l-9.388,-9.896c-2.133,-2.249 -5.701,-2.296 -7.893,-0.104v0l9.281,10l-9.281,10v0c2.192,2.192 5.76,2.145 7.893,-0.104z"/><path d="M34.388,33.896l-9.388,-9.896l9.388,-9.896c2.133,-2.249 5.701,-2.296 7.893,-0.104v0l-9.281,10l9.281,10v0c-2.192,2.192 -5.76,2.145 -7.893,-0.104z"/><path d="M35.991,38.004l-12,-13l-12,13v0c2.17,2.17 5.719,2.066 7.758,-0.228l4.242,-4.772l4.242,4.772c2.039,2.294 5.588,2.398 7.758,0.228z"/></g></g></svg>