<svg xmlns="http://www.w3.org/2000/svg" width="48" height="48" viewBox="0 0 256 256"><g fill="none" stroke-miterlimit="10" font-family="none" font-size="none" font-weight="none" style="mix-blend-mode:normal" text-anchor="none"><path fill="#eceff1" d="m107.2 86.4.533 12.267-8.533 16L85.867 140.8 83.2 162.667l9.6 30.933 21.867 12.267h33.066l30.934-23.467 13.866-36.8-32-38.933-9.066-21.867Z"/><path fill="#adadad" d="M182.933 116.8c-8.533-12.267-15.466-19.733-19.2-35.2C160 66.133 164.8 70.4 161.6 57.067c-1.6-6.934-4.267-11.734-6.933-15.467-3.2-3.733-6.934-5.867-9.067-6.4-4.8-2.667-16-6.933-29.867.533-14.4 7.467-12.8 23.467-10.133 56 0 2.134-.533 4.8-1.6 6.934-2.133 4.8-5.867 9.066-9.067 12.8C91.2 116.8 87.467 122.133 84.8 128c-6.4 12.267-12.267 27.733-10.667 33.6 2.667-.533 36.267 50.667 36.267 51.733 2.133-.533 11.2-.533 19.2-.533 11.2-.533 17.6-1.067 26.667 1.067 0-1.6-.534-3.2-.534-4.8 0-3.2.534-5.867 1.067-9.6.533-2.667 1.067-5.334 1.6-8.534-5.333 4.8-14.933 10.134-24 11.734-8 1.6-21.333-1.067-27.733-9.067.533 0 1.6 0 2.133-.533 1.6-.534 3.2-1.067 3.733-2.134 1.6-2.666.534-5.333-.533-6.933s-9.067-7.467-12.8-10.667-5.867-4.8-8-6.933l-4.267-4.267c-1.066-1.066-1.6-2.133-2.133-2.666-1.067-2.667-1.6-5.867-1.067-10.134.534-5.866 2.667-10.666 5.334-16 1.066-2.133 3.733-6.4 3.733-6.4s-9.067 22.4-4.267 29.334c0 0 .534-6.934 2.667-13.867 1.6-4.8 4.267-11.733 7.467-15.467s11.2-17.6 11.733-26.133c0-3.733.533-7.467.533-10.133-2.133-2.134 35.2-7.467 37.334-1.6.533 2.133 8 21.333 12.266 31.466 2.134 4.8 4.8 9.067 6.4 14.4 1.6 5.867 2.667 13.867 2.667 21.867 0 1.6 0 4.267-.533 6.933 1.066 0 21.866-22.4-2.667-41.066 0 0 14.933 6.933 15.467 20.8.533 11.2-4.267 20.266-5.334 21.866.534 0 11.2 4.8 11.734 4.8 2.133 0 6.4-1.6 6.4-1.6.533-1.6 2.133-5.866 2.133-7.466 3.733-12.267-5.333-32-13.867-44.267"/><path fill="#eceff1" d="M115.2 60.267c-3.83-.006-6.933 4.768-6.939 10.661 0 5.893 3.099 10.672 6.928 10.672h.01c3.83.005 6.934-4.768 6.94-10.661.005-5.894-3.1-10.672-6.928-10.672Zm24-2.134c-5.008 0-9.067 5.494-9.067 12.267s4.059 12.267 9.067 12.267 9.067-5.494 9.067-12.267-4.06-12.267-9.067-12.267"/><path fill="#adadad" d="M111.67 72.597c.442 3.51 2.458 6.139 4.506 5.883s3.344-3.312 2.901-6.816c-.442-3.51-2.458-6.139-4.506-5.883s-3.344 3.312-2.902 6.816M138.667 65.6c-2.944 0-5.334 3.099-5.34 6.928 0 3.83 2.385 6.933 5.329 6.939h.005c2.944 0 5.334-3.099 5.339-6.928 0-3.83-2.384-6.934-5.328-6.939Z"/><path fill="#adadad" d="M209.6 189.867c-2.133-1.067-5.867-2.667-9.067-7.467-1.6-2.667-1.066-10.133-3.733-13.333-1.6-2.134-3.733-1.067-4.267-1.067C187.733 169.067 176.533 176.533 169.067 168c-1.067-1.067-2.667-2.667-5.334-2.667s-3.733 1.067-4.8 3.2-1.066 3.734-1.066 9.067c0 4.267 0 9.067-.534 12.8-1.066 9.067-2.666 14.4-2.666 19.733 0 5.867 1.6 9.6 3.733 11.2 1.6 1.6 4.267 2.667 10.133 2.667 5.867 0 9.6-2.133 13.334-5.867 2.666-2.666 4.8-3.733 12.266-9.066 5.867-3.734 14.934-8.534 16.534-10.134 1.066-1.066 2.666-1.6 2.666-4.8 0-2.666-2.133-3.733-3.733-4.266m-107.2 1.6c-5.333-8.534-5.867-10.134-9.6-15.467-3.2-5.333-10.133-15.467-14.4-15.467-3.2 0-4.8 1.6-6.933 3.734s-4.267 6.933-8 9.6c-3.2 2.666-12.267 2.133-14.4 5.333s2.133 8 2.133 16c0 3.2-2.667 5.333-3.2 7.467-.533 2.666-1.067 4.266 0 6.4 2.133 3.2 4.8 4.266 22.933 8 9.6 2.133 18.667 7.466 24.534 8s16 0 16-14.4c.533-8.534-4.267-10.667-9.067-19.2m10.133-96.534c-3.2-2.133-5.866-4.266-5.866-7.466S108.8 83.2 112 80.533c.533-.533 6.4-5.866 12.267-5.866s12.8 3.733 15.466 4.8c4.8 1.066 9.6 2.133 9.067 5.866-.533 5.334-1.067 6.4-6.4 9.067-3.733 1.067-10.667 6.933-15.467 6.933-2.133 0-5.333 0-7.466-.533-1.6-.533-4.267-3.2-6.934-5.867"/><path fill="#adadad" d="M111.467 90.667c1.066 1.066 2.666 2.133 4.266 2.666 1.067.534 2.667 1.067 2.667 1.067h4.8c2.667 0 6.4-1.067 10.133-3.2 3.734-1.6 4.267-2.667 6.934-3.733 2.666-1.6 5.333-3.2 4.266-3.734-1.066-.533-2.133 0-5.866 2.134-3.2 2.133-5.867 3.2-9.067 4.8-1.6.533-3.733 1.6-5.333 1.6h-4.8c-1.6 0-2.667-.534-4.267-1.067-1.067-.533-1.6-1.067-2.133-1.067-1.067-.533-3.2-2.666-4.267-3.2 0 0-1.067 0-.533.534Zm16-11.734c.533 1.067 1.6 1.067 2.133 1.6s1.067.534 1.067.534c.533-.534 0-1.6-.534-1.6 0-1.067-2.666-1.067-2.666-.534M118.933 80c0 .533 1.067 1.067 1.067.533.533-.533 1.067-1.066 1.6-1.066 1.067-.534.533-1.067-1.067-1.067-1.066.533-1.066 1.067-1.6 1.6M170.667 174.4v1.6c1.066 2.133 3.733 2.667 5.866 2.667 3.2 0 6.4-2.134 8-4.267 0-.533.534-1.067 1.067-1.6 1.067-1.6 1.6-2.667 2.133-3.2 0 0-.533-.533-.533-1.067-.533-1.066-2.133-2.133-4.267-2.666-1.6-.534-4.266-1.067-5.333-1.067-4.8-.533-7.467 1.067-9.067 2.667 0 0 .534 0 .534.533 1.066 1.067 1.6 2.133 1.6 3.733.533 1.067 0 1.6 0 2.667"/><path fill="none" d="m19.008 34.096 15.083-15.083 202.517 202.512-15.083 15.083Z"/></g></svg>