<svg xmlns="http://www.w3.org/2000/svg" width="43" height="44" fill="none" viewBox="0 0 43 44"><path fill="#1465ff" d="M21.425 18.268 11.537 0l9.888 3.806L31.314 0ZM19.777 19.79 0 28.924l4.12-9.134L0 10.656ZM23.073 19.79l19.778-9.134-4.12 9.134 4.12 9.134ZM20.055 21.817v3.174L7.488 30.808l12.567 6.876v3.703L.633 30.807ZM22.704 21.817v3.174l12.567 5.818-12.567 6.876v3.703l19.422-10.58ZM37.453 35.511c-2.502 1.36-15.185 7.502-15.891 8.154l15.89-3.261Z"/><path fill="#1465ff" d="M5.748 35.511c2.501 1.36 15.185 7.502 15.89 8.154l-15.89-3.261Z"/></svg>