<svg xmlns="http://www.w3.org/2000/svg" width="43" height="44" viewBox="0 0 43 44" fill="none">
<path d="M21.4253 18.2675L11.5367 0L21.4253 3.80573L31.3139 0L21.4253 18.2675Z" fill="#1465FF"/>
<path d="M19.7772 19.7898L-1.52588e-05 28.9235L4.12024 19.7898L-1.52588e-05 10.656L19.7772 19.7898Z" fill="#1465FF"/>
<path d="M23.0734 19.7898L42.8507 10.6561L38.7304 19.7898L42.8507 28.9235L23.0734 19.7898Z" fill="#1465FF"/>
<path d="M20.0553 21.8168V24.9904L7.48789 30.8087L20.0553 37.6848V41.3873L0.632954 30.8087L20.0553 21.8168Z" fill="#1465FF"/>
<path d="M22.7038 21.8168V24.9904L35.2712 30.8087L22.7038 37.6848V41.3873L42.1261 30.8087L22.7038 21.8168Z" fill="#1465FF"/>
<path d="M37.4526 35.5111C34.9512 36.8702 22.2679 43.0131 21.5616 43.6655L37.4526 40.4037V35.5111Z" fill="#1465FF"/>
<path d="M5.74786 35.5111C8.24922 36.8702 20.9326 43.0131 21.6388 43.6655L5.74786 40.4037V35.5111Z" fill="#1465FF"/>
</svg>